<svg width="18" height="20" viewBox="0 0 18 20" fill="none" xmlns="http://www.w3.org/2000/svg">
<path d="M16.5 8.5C16.5 14.3333 9 19.3333 9 19.3333C9 19.3333 1.5 14.3333 1.5 8.5C1.5 6.51088 2.29018 4.60322 3.6967 3.1967C5.10322 1.79018 7.01088 1 9 1C10.9891 1 12.8968 1.79018 14.3033 3.1967C15.7098 4.60322 16.5 6.51088 16.5 8.5Z" stroke="#61594D" stroke-opacity="0.6" stroke-width="2" stroke-linecap="round" stroke-linejoin="round"/>
<path d="M9 10.8333C10.3807 10.8333 11.5 9.71396 11.5 8.33325C11.5 6.95254 10.3807 5.83325 9 5.83325C7.61929 5.83325 6.5 6.95254 6.5 8.33325C6.5 9.71396 7.61929 10.8333 9 10.8333Z" stroke="#61594D" stroke-opacity="0.6" stroke-width="2" stroke-linecap="round" stroke-linejoin="round"/>
</svg>
