<svg xmlns="http://www.w3.org/2000/svg" version="1.1" xmlns:xlink="http://www.w3.org/1999/xlink" xmlns:svgjs="http://svgjs.com/svgjs" width="259" height="76"><svg width="259" height="76" viewBox="0 0 259 76" fill="none" xmlns="http://www.w3.org/2000/svg">
<path d="M74.3585 71.995L76.7588 61.5171H91.6295L94.0298 71.995H105.563L91.688 15.8333H76.993L63.1177 71.995H74.3585ZM81.5596 40.7288L84.1941 26.6465L86.8287 40.7288L88.7022 48.9435H79.6861L81.5596 40.7288Z" fill="#2C2321"></path>
<path d="M117.613 71.995V51.123C117.613 44.4171 119.838 41.148 122.238 41.148C123.936 41.148 124.639 42.7406 124.639 45.0877C124.639 47.6024 123.468 50.7877 122.414 52.548H132.074C132.894 50.4524 134.065 46.1774 134.065 41.148C134.065 34.2744 132.191 29.748 127.156 29.748C121.243 29.748 118.491 37.4597 117.613 44.5847V30.5862H107.075V71.995H117.613Z" fill="#2C2321"></path>
<path d="M150.452 72.8333C156.892 72.8333 161.927 68.0553 163.976 61.6847L155.78 53.973C154.96 58.248 153.438 60.3435 150.92 60.3435C148.169 60.3435 146.12 57.5774 146.12 51.2906C146.12 45.0038 148.169 42.2377 150.92 42.2377C153.379 42.2377 154.96 44.3333 155.78 48.6083L163.976 40.8965C161.927 34.5259 156.892 29.748 150.452 29.748C141.202 29.748 135.406 38.9685 135.406 51.2906C135.406 63.6127 141.202 72.8333 150.452 72.8333Z" fill="#2C2321"></path>
<path d="M177.131 71.995V49.4465C177.131 42.7406 177.892 41.148 180.937 41.148C184.098 41.148 184.742 43.8303 184.742 48.8597V71.995H195.28V42.9921C195.28 34.5259 192.002 29.748 186.615 29.748C180.585 29.748 177.951 36.0347 177.131 42.9083V15.8333H166.593V71.995H177.131Z" fill="#2C2321"></path>
<path d="M213.981 72.8333C220.597 72.8333 224.403 68.8097 226.627 64.7024L220.246 55.9847C219.134 59.5891 217.026 60.7627 214.157 60.7627C211.23 60.7627 208.947 59.3377 208.303 55.3141H226.862C227.037 54.3083 227.154 51.2068 227.154 49.195C227.154 39.22 222.88 29.748 212.986 29.748C204.146 29.748 198.525 38.7171 198.525 51.2906C198.525 63.8641 204.029 72.8333 213.981 72.8333ZM213.045 40.9803C216.206 40.9803 217.553 43.3274 217.728 47.5185H208.127C208.361 43.1597 210.176 40.9803 213.045 40.9803Z" fill="#2C2321"></path>
<path d="M245.827 72.8333C252.443 72.8333 256.248 68.8097 258.473 64.7024L252.092 55.9847C250.979 59.5891 248.872 60.7627 246.003 60.7627C243.076 60.7627 240.792 59.3377 240.148 55.3141H258.707C258.883 54.3083 259 51.2068 259 49.195C259 39.22 254.726 29.748 244.832 29.748C235.992 29.748 230.371 38.7171 230.371 51.2906C230.371 63.8641 235.874 72.8333 245.827 72.8333ZM244.89 40.9803C248.052 40.9803 249.399 43.3274 249.574 47.5185H239.973C240.207 43.1597 242.022 40.9803 244.89 40.9803Z" fill="#2C2321"></path>
<path d="M43.1431 73.9813H9.09221C7.11356 73.9688 5.21865 72.818 3.82105 70.7801C2.42345 68.7422 1.63665 65.9827 1.63235 63.1038V26.3388C1.64053 24.3899 2.00844 22.48 2.69762 20.8088C3.3868 19.1376 4.37194 17.7665 5.55 16.8389L22.5428 3.3251C23.6372 2.45829 24.8634 2.00415 26.1095 2.00415C27.3555 2.00415 28.5818 2.45829 29.6762 3.3251L46.7179 16.7676C47.896 17.6952 48.8811 19.0663 49.5703 20.7376C50.2595 22.4088 50.6274 24.3187 50.6356 26.2676V63.1038C50.6313 65.9909 49.84 68.7576 48.4353 70.7969C47.0307 72.8361 45.1274 73.9814 43.1431 73.9813ZM26.1176 6.7451C25.4167 6.74359 24.7266 6.99665 24.1099 7.48135L7.06809 20.9476C6.40709 21.4802 5.85675 22.2618 5.47477 23.2103C5.09279 24.1589 4.89325 25.2395 4.89706 26.3388V63.1038C4.89706 64.729 5.34077 66.2875 6.13057 67.4366C6.92038 68.5858 7.99158 69.2313 9.10853 69.2313H43.1431C44.2572 69.2251 45.3242 68.5767 46.1105 67.4283C46.8968 66.2798 47.3382 64.7249 47.3382 63.1038V26.3388C47.3388 25.2347 47.1344 24.1508 46.7465 23.2019C46.3586 22.2529 45.8016 21.474 45.1346 20.9476L28.1254 7.5051C27.5102 7.01214 26.82 6.75088 26.1176 6.7451V6.7451Z" fill="#D6680F"></path>
<path d="M45.9339 18.8577L28.9085 5.41521C28.0518 4.73756 27.0922 4.38257 26.1172 4.38257C25.1421 4.38257 24.1825 4.73756 23.3258 5.41521L6.30039 18.8577C5.37874 19.5923 4.61028 20.6749 4.07596 21.9915C3.54163 23.3081 3.26121 24.81 3.26421 26.339V63.104C3.26421 65.359 3.8799 67.5216 4.97583 69.1161C6.07176 70.7107 7.55816 71.6065 9.10804 71.6065H43.1426C44.6896 71.6002 46.1719 70.7016 47.2643 69.1078C48.3567 67.5139 48.9701 65.3549 48.9701 63.104V26.339C48.9731 24.81 48.6927 23.3081 48.1584 21.9915C47.624 20.6749 46.8556 19.5923 45.9339 18.8577V18.8577ZM35.7317 52.1077C35.2984 55.3551 34.102 58.2819 32.3478 60.3863C30.5935 62.4907 28.3908 63.6416 26.1172 63.6416C23.8436 63.6416 21.6408 62.4907 19.8865 60.3863C18.1323 58.2819 16.936 55.3551 16.5026 52.1077C16.4671 51.7673 16.4829 51.4198 16.5488 51.0891C16.6148 50.7585 16.7294 50.4527 16.8847 50.1929C17.04 49.9331 17.2322 49.7255 17.4481 49.5845C17.664 49.4436 17.8983 49.3726 18.1349 49.3765V49.3765C18.5238 49.3682 18.9019 49.5623 19.2012 49.9237C19.5005 50.2851 19.7012 50.7901 19.7673 51.3477C20.0747 53.4826 20.8777 55.3986 22.0415 56.7738C23.2052 58.149 24.6588 58.8997 26.158 58.8997C27.6572 58.8997 29.1107 58.149 30.2745 56.7738C31.4382 55.3986 32.2412 53.4826 32.5486 51.3477C32.6147 50.7901 32.8155 50.2851 33.1147 49.9237C33.414 49.5623 33.7921 49.3682 34.181 49.3765C34.4059 49.3904 34.6265 49.472 34.8287 49.6159C35.031 49.7599 35.2105 49.9632 35.3562 50.213C35.5018 50.4628 35.6104 50.7538 35.675 51.0676C35.7396 51.3814 35.7589 51.7113 35.7317 52.0365V52.1077Z" fill="#D6680F"></path>
</svg><style>@media (prefers-color-scheme: light) { :root { filter: none; } }
</style></svg>